<?xml version="1.0" encoding="utf-8"?>
<!-- Generator: Adobe Illustrator 22.1.0, SVG Export Plug-In . SVG Version: 6.00 Build 0)  -->
<svg version="1.1" id="Layer_1" xmlns="http://www.w3.org/2000/svg" xmlns:xlink="http://www.w3.org/1999/xlink" x="0px" y="0px"
	 viewBox="0 0 227 391.4" style="enable-background:new 0 0 227 391.4;" xml:space="preserve">
<style type="text/css">
	.st0{fill:#009edb;}
	.st1{fill:none;stroke:#009edb;stroke-width:3;stroke-miterlimit:10;}
</style>
<title>UNESCWA</title>
<g id="UN">
	<path class="st0" d="M18,222.4v11.4c0,4.3,1.9,6.1,4.5,6.1c2.9,0,4.7-1.9,4.7-6.1v-11.4h2.5v11.2c0,5.9-3.1,8.3-7.3,8.3
		c-3.9,0-6.9-2.2-6.9-8.2v-11.3H18z"/>
	<path class="st0" d="M33.9,241.6v-19.2h2.7l6.2,9.7c1.3,2,2.4,4.1,3.5,6.2h0.1c-0.2-2.6-0.3-4.9-0.3-7.9v-8h2.3v19.2h-2.5l-6.1-9.8
		c-1.3-2.1-2.5-4.2-3.6-6.4h-0.1c0.1,2.4,0.2,4.7,0.2,7.9v8.2L33.9,241.6z"/>
	<path class="st0" d="M55.2,222.4v19.2h-2.5v-19.2H55.2z"/>
	<path class="st0" d="M62.2,224.5h-5.8v-2.1h14.2v2.1h-5.9v17.1h-2.5V224.5z"/>
	<path class="st0" d="M82.6,232.6h-7.5v6.9h8.3v2.1H72.7v-19.2h10.4v2.1h-7.9v6.1h7.5L82.6,232.6z"/>
	<path class="st0" d="M86.7,222.7c1.7-0.3,3.5-0.4,5.3-0.4c3.6,0,6.1,0.8,7.8,2.4c1.9,1.8,2.9,4.3,2.7,6.9c0.1,2.8-0.9,5.5-2.8,7.5
		c-1.8,1.8-4.8,2.8-8.5,2.8c-1.5,0-3-0.1-4.5-0.2V222.7z M89.2,239.7c0.8,0.1,1.7,0.2,2.5,0.1c5.3,0,8.2-3,8.2-8.2
		c0-4.5-2.5-7.4-7.8-7.4c-1,0-2,0.1-2.9,0.3V239.7z"/>
	<path class="st0" d="M111.5,241.6v-19.2h2.7l6.2,9.7c1.3,2,2.4,4.1,3.5,6.2h0.1c-0.2-2.6-0.3-4.9-0.3-7.9v-8h2.3v19.2h-2.5
		l-6.1-9.8c-1.3-2.1-2.5-4.2-3.6-6.4h-0.1c0.1,2.4,0.2,4.7,0.2,7.9v8.2L111.5,241.6z"/>
	<path class="st0" d="M132.3,235.6l-2,6h-2.6l6.5-19.2h3l6.5,19.2h-2.7l-2-6H132.3z M138.6,233.6l-1.9-5.5c-0.4-1.2-0.7-2.4-1-3.5
		h-0.1c-0.3,1.2-0.6,2.3-1,3.5l-1.9,5.6L138.6,233.6z"/>
	<path class="st0" d="M148.1,224.5h-5.8v-2.1h14.2v2.1h-5.9v17.1h-2.5L148.1,224.5z"/>
	<path class="st0" d="M161.1,222.4v19.2h-2.5v-19.2H161.1z"/>
	<path class="st0" d="M180.9,231.8c0,6.6-4,10.1-8.9,10.1c-5.1,0-8.6-3.9-8.6-9.8c0-6.1,3.8-10.1,8.9-10.1S180.9,226.1,180.9,231.8z
		 M166,232.1c0,4.1,2.2,7.8,6.1,7.8s6.2-3.6,6.2-8c0-3.8-2-7.8-6.1-7.8S166,227.9,166,232.1z"/>
	<path class="st0" d="M184.1,241.6v-19.2h2.7l6.2,9.7c1.3,2,2.4,4.1,3.5,6.2h0.1c-0.2-2.6-0.3-4.9-0.3-7.9v-8h2.3v19.2h-2.5
		l-6.1-9.8c-1.3-2.1-2.5-4.2-3.6-6.4h-0.1c0.1,2.4,0.2,4.7,0.2,7.9v8.2L184.1,241.6z"/>
	<path class="st0" d="M202.3,238.6c1.3,0.8,2.9,1.2,4.5,1.2c2.5,0,4-1.3,4-3.3s-1-2.8-3.6-3.8c-3.1-1.1-5.1-2.7-5.1-5.5
		c0-3,2.5-5.2,6.2-5.2c1.5-0.1,2.9,0.3,4.2,1l-0.7,2c-1.1-0.6-2.4-0.9-3.7-0.9c-2.6,0-3.6,1.6-3.6,2.9c0,1.8,1.2,2.7,3.8,3.7
		c3.2,1.2,4.9,2.8,4.9,5.6s-2.2,5.5-6.7,5.5c-1.7,0-3.4-0.4-4.9-1.2L202.3,238.6z"/>
</g>
<g id="Arabic">
	<polygon class="st0" points="45.3,268.8 45.3,311 44.5,311 37.5,311 37,311 37,268.8 37.5,268.8 44.5,268.8 	"/>
	<polygon class="st0" points="182.9,268.8 182.9,311 182.1,311 175.1,311 174.6,311 174.6,268.8 175.1,268.8 182.1,268.8 	"/>
	<path class="st0" d="M84.5,268.8h-2.2v33.7H72v-25.3H51V311h12.6v13.2H72V311h62.8v-25.4h-8.3v16.9h-4.4v-16.9h-8.4v16.9h-4.5
		v-16.9H101v16.9H90.7v-25.3h44.1v-8.4H84.5z M63.6,302.5h-4.2v-16.9h4.2V302.5z"/>
	<polygon class="st0" points="169.5,268.8 169.5,311 140.2,311 140.2,302.2 146.5,302.2 146.5,277 155.1,277.1 155.1,302.2 
		160.9,302.2 160.9,268.8 	"/>
</g>
<circle class="st1" cx="113.5" cy="80.9" r="16.3"/>
<circle class="st1" cx="113.5" cy="80.9" r="31.4"/>
<circle class="st1" cx="113.5" cy="80.9" r="47.7"/>
<circle class="st1" cx="113.5" cy="80.9" r="62.8"/>
<circle class="st1" cx="113.5" cy="80.9" r="79.4"/>
<line class="st1" x1="113.5" y1="65" x2="113.5" y2="1.2"/>
<line class="st1" x1="113.5" y1="160.2" x2="113.5" y2="96.4"/>
<line class="st1" x1="129.6" y1="80.9" x2="193.3" y2="80.9"/>
<line class="st1" x1="33.6" y1="80.9" x2="97.4" y2="80.9"/>
<line class="st1" x1="124.5" y1="69.8" x2="169.6" y2="24.7"/>
<line class="st1" x1="102.4" y1="69.8" x2="57.3" y2="24.7"/>
<line class="st1" x1="102.4" y1="91.9" x2="57.3" y2="137"/>
<line class="st1" x1="124.5" y1="91.9" x2="169.6" y2="137"/>
<path id="Laurel" class="st0" d="M53.7,8.4c-8,3.1-16.7,6.3-21.9,14.6c-3,4.8-3.5,10.5-5.9,15.5c4.5-4.2,9.6-7.3,13.4-12.3
	C43.8,20.3,47.8,13.6,53.7,8.4z M173.3,8.4c5.9,5.2,9.9,11.9,14.4,17.9c3.8,5,9,8.1,13.4,12.3c-2.4-5-2.8-10.7-5.9-15.5
	C190,14.8,181.4,11.5,173.3,8.4z M32,19.4c-4.1,1-7.5,3.7-10.6,7.1c-6.4,7.1-5.9,17.7-5,27c0.2,2.8,0.2,5.6-0.2,8.3
	c2.1-4.2,5.1-7.8,8.9-10.6c8.4-6.3,17.5-14.5,17.7-25.2C39.9,33.8,31.5,37,25.8,42.2c-2.9,2.7-5.1,6-6.6,9.6l-0.2-0.2
	c0.7-3.1,2-5.9,2.9-8.9C24.4,34.6,24,24.8,32,19.4L32,19.4z M195,19.4c8,5.5,7.5,15.3,10,23.5c0.9,3,2.2,5.8,2.9,8.9l-0.2,0.2
	c-1.4-3.7-3.7-7-6.6-9.6c-5.6-5.3-14-8.5-16.8-16.2c0.1,10.8,9.3,18.9,17.7,25.2c3.7,2.8,6.8,6.5,8.9,10.6c-0.4-2.8-0.4-5.6-0.2-8.3
	c0.9-9.4,1.4-19.9-5-27C202.6,23.1,199.2,20.5,195,19.4L195,19.4z M15,34c-0.2,0-0.3,0.1-0.5,0.2C8.9,41.3,5.2,49,5.2,58.6
	c0,11.8,6.8,20,7.6,31C14.5,78,24.2,69.9,29.2,59.7c1.9-4,3.2-8.3,3.7-12.8c-0.7,1.9-1.9,3.6-3.4,5C23,58.1,15.4,64.2,13.9,73
	c-0.2,1.3-0.4,2.5-0.7,3.7c-0.3,0.1-0.3-0.2-0.4-0.3l0.8-10.8C14.4,55.1,8.8,43.3,15,34L15,34z M212,34c6.1,9.3,0.5,21,1.3,31.6
	l0.8,10.8c-0.1,0.1-0.1,0.4-0.4,0.3c-0.3-1.2-0.5-2.5-0.7-3.7c-1.5-8.7-9.1-14.8-15.6-21c-1.5-1.4-2.6-3.1-3.4-5
	c0.5,4.4,1.8,8.7,3.7,12.8c5,10.1,14.7,18.3,16.4,29.8c0.8-11,7.6-19.2,7.6-31c0-9.5-3.7-17.3-9.3-24.4C212.4,34.1,212.2,34,212,34
	L212,34z M3.1,63.3c-1.1,2.8-2,5.8-2.5,8.8c-1.5,7.7,0,15.9,2.1,22.9c2.6,8.8,11.3,15.2,15.6,23.3l0.6,0.5c-0.6-4.4-1-9.1,0.3-13.3
	c1.9-6.7,4.3-13.2,5.5-20.2c1-5.4,2.1-11.5,1.5-16.7c-0.6,2.8-1.6,5.5-3,8c-5.9,9.1-11.9,19.8-7.8,31.4c-0.1,0.1-0.2,0.3-0.4,0.2
	c-1.7-3.8-2-8.2-3.1-12.3C9,84.9,0.7,75.8,3.1,63.3L3.1,63.3z M223.9,63.3c2.5,12.6-5.9,21.6-8.8,32.5c-1.1,4.1-1.4,8.5-3.1,12.3
	c-0.2,0.1-0.3-0.1-0.4-0.2c4.1-11.6-1.9-22.3-7.8-31.4c-1.4-2.5-2.4-5.2-3-8c-0.6,5.2,0.5,11.3,1.5,16.7c1.2,7,3.6,13.5,5.5,20.2
	c1.2,4.2,0.9,8.9,0.3,13.3l0.6-0.5c4.4-8.1,13-14.4,15.7-23.3c2.1-7.1,3.5-15.2,2.1-22.9C225.9,69.1,225.1,66.1,223.9,63.3
	L223.9,63.3z M24.8,94.6c1.1,7.2-1.8,13.5-2.4,20.3c-0.5,5.4,0.4,10.8,2.6,15.7c0.6,1.4,1.8,2.6,2.1,4.1c-2-2-3.7-4.2-5-6.6
	c-6.8-11-21-18.1-21.9-31.4c-0.6,5.9,0.1,11.9,2,17.5c2.7,7.3,8,12.9,14.1,17.7c6.3,5,13.8,8.8,19.5,13.2c-1.1-2.9-3-5.5-3.7-8.5
	C28.8,122.9,30.6,107.2,24.8,94.6L24.8,94.6z M202.2,94.6c-5.8,12.6-4,28.3-7.3,41.9c-0.8,3-2.6,5.6-3.7,8.5
	c5.7-4.4,13.2-8.2,19.5-13.2c6.1-4.8,11.4-10.4,14.1-17.7c1.9-5.6,2.6-11.6,2-17.5c-1,13.3-15.2,20.5-21.9,31.4
	c-1.3,2.4-3,4.7-5,6.6c0.3-1.4,1.5-2.7,2.1-4.1c2.2-4.9,3.1-10.3,2.6-15.7C204,108.1,201.1,101.7,202.2,94.6L202.2,94.6z
	 M32.1,117.4c4.9,9.8,2.8,22.5,9.2,31.8c2.1,2.9,4.6,5.6,7.4,8l-0.1,0.1c-2.4-1.2-4.6-2.7-6.6-4.5c-11.2-9.3-27.9-10.5-34.6-25.6
	c1.8,11.1,10.6,20.9,20.1,27.2c9,5.9,20.6,5.3,30.7,8.6c-9.3-7.5-10.7-18.7-14.8-28.6C40.8,128.3,36.6,122.8,32.1,117.4L32.1,117.4z
	 M194.9,117.4c-4.5,5.4-8.7,10.9-11.2,17c-4.1,9.9-5.5,21.1-14.8,28.6c10-3.3,21.6-2.6,30.7-8.6c9.5-6.2,18.3-16.1,20.1-27.2
	c-6.7,15.1-23.5,16.3-34.6,25.6c-2,1.7-4.2,3.2-6.6,4.4l-0.1-0.1c2.7-2.4,5.2-5.1,7.4-8C192.1,139.9,190,127.2,194.9,117.4
	L194.9,117.4z M48.2,141.4c6.1,8.2,7.8,20,18.9,24.2c2,0.7,4.2,0.9,5.9,1.9c-2.1,0.3-4-0.3-6-0.8c-14.3-3-31.8,0.9-42.5-11.3
	c4.1,8,12.4,14.2,20.5,16.9c12.5,4.1,25.5-0.5,37.2-3.4c1.7-0.4,3.7-0.3,5.3-0.9c-6.5-1.3-12.8-3.3-17.9-7.9
	C62.3,153.6,55.9,146.5,48.2,141.4L48.2,141.4z M178.8,141.4c-7.8,5.2-14.2,12.2-21.4,18.9c-5,4.6-11.3,6.6-17.8,7.9
	c1.6,0.6,3.6,0.4,5.3,0.9c11.7,2.9,24.7,7.5,37.2,3.4c8-2.7,16.4-8.9,20.5-16.9c-10.7,12.2-28.2,8.3-42.5,11.3c-2,0.4-3.9,1.1-6,0.8
	c1.7-1.1,4-1.2,5.9-1.9C171,161.4,172.8,149.5,178.8,141.4L178.8,141.4z M101.7,167.8c-11,0-20.8,5.3-30.4,9.3
	c-8.7,3.6-20.3,2.9-28-2.4c3.8,4.8,8.9,7.7,14.2,9.7c9.8,3.9,21.2,0.9,29.6-4.4c6-3.8,11.2-9.3,18.3-9.3c1.3,0,2.5,0.1,3.8,0.4
	c-10,4-19.2,11.1-26.3,17.9c1.4,1.5,3,2.9,4.6,4.2c8-8.2,17-17.1,26-20.8c9,3.7,18,12.6,26,20.8c1.6-1.3,3.2-2.7,4.6-4.2
	c-7.1-6.8-16.3-13.9-26.3-17.9c1.2-0.3,2.5-0.4,3.8-0.4c7.2,0,12.3,5.5,18.3,9.3c8.3,5.3,19.8,8.3,29.6,4.4c5.3-2,10.4-5,14.2-9.7
	c-7.7,5.3-19.3,6-28,2.4c-9.6-4-19.4-9.3-30.4-9.3c-4,0-8,0.6-11.8,1.8C109.7,168.5,105.7,167.8,101.7,167.8L101.7,167.8z"/>
<path class="st0" d="M128.7,23.6l-0.6-0.4c0,0-0.9-0.1-0.9-0.3v0l0,0c0,0-0.5,0.6-0.8,0.8c0.4,0.2,0.9,0.5,0.9,0.5
	c0.5,0,0.9,0.3,1.1,0.7c0,0.2,0.9,0.1,0.9,0.1l0.1-0.6L128.7,23.6z"/>
<path class="st0" d="M157,56.5L157,56.5L157,56.5C157,56.6,157,56.5,157,56.5z"/>
<path class="st0" d="M126.2,23.6c0.1,0.1,0.1,0.1,0.2,0C126.1,23.4,125.8,23.2,126.2,23.6z"/>
<polygon class="st0" points="125.6,26.2 125.6,26.2 125.6,26.9 126.4,27 126.2,26.3 "/>
<polygon class="st0" points="124.6,23.4 124.5,23.4 123.7,23.3 123.7,23.8 124.3,23.9 124.9,24.7 125.3,24.4 124.7,23.5 "/>
<path class="st0" d="M134.7,34.1c-0.4,0-1.1-0.5-1-0.8s-1.4-0.6-1.4-0.6s-1.4-1.3-0.9-1.2s0.2-0.6,0.2-0.6c-0.4,0.1-0.8,0.1-1.2,0.1
	c-0.2-0.1-0.1-0.8-0.1-0.8c-0.3-0.1-0.6-0.1-0.8-0.1l0,0c-0.1,0-0.2,0-0.2,0.1c0,0.2,0.3,0.2,0.5,0.7s0.1,1.3,0.8,1.5s0.9,0.3,1,0.6
	s1,0.4,1,0.4l0.6,0.3l2,1.6v-0.6C135.3,34.7,135.1,34.1,134.7,34.1z"/>
<path class="st0" d="M150.6,22.9l1.2,0.4c0,0,1.5,1.8,1.5,0.9c-0.2-2.5-1.3-2.5-1.7-3c-0.1-0.1-0.3-0.2-0.5-0.2l0,0
	c-0.6,0-1.6,0.4-1.5,0.9C149.7,22.4,150.1,22.8,150.6,22.9z"/>
<polygon class="st0" points="157,56.5 157,56.5 157,56.5 "/>
<path class="st0" d="M155.2,50.7c-0.1,0.3,0,0.6,0.3,0.7c0.1,0,0.1,0,0.2,0c0.3,0,0.6,0.1,0.9,0.3c0.3,0.2,0.6,0.4,0.8,0.7l0.8-0.2
	c0,0,0.1-0.8-0.2-0.6s-0.6-0.6-0.9-0.5s-0.5-0.3-0.8-0.7s-0.2-0.5-0.6-0.7c-0.1-0.1-0.3-0.2-0.5-0.2l0,0c-0.1,0-0.2,0.1-0.2,0.2
	C154.9,50.2,155.3,50.3,155.2,50.7z"/>
<polygon class="st0" points="126.2,22.2 125.7,22 125.7,22 125.4,22.7 125.9,22.9 "/>
<path class="st0" d="M157.5,53.2L157.5,53.2l-1,0.1c0.2,0.3,0.7,0.6,0.7,0.9s-0.1,0.6,0.3,0.6s0.8-0.1,1,0.3
	c0.1,0.5,0.2,0.9,0.1,1.4c-0.1,0.3,0.1,0.8,0.5,0.8s0.5,0.1,0.5,0.3s0.5-0.9,0.5-0.9c-0.3-0.3-0.5-0.7-0.7-1.1c0,0-0.4-1.2-0.4-1.3
	s-0.6-0.3-0.8-0.4C157.9,53.9,157.7,53.6,157.5,53.2z"/>
<polygon class="st0" points="151.8,47.2 151.7,46.4 151.7,46.4 151.2,46.5 151.3,47.3 "/>
<polygon class="st0" points="162.1,72.9 162.5,73.1 162.8,72.6 162.3,72.4 "/>
<path class="st0" d="M160.2,59.4c-0.2,0.1-0.4,0.5-0.6,0.7s0.5,0.6,0.5,0.8s0.2,1.5,0.2,1.5s0.6,0.2,0.6,0.6s0,1,0.2,1.1
	s0.7,0.4,0.6,0.7c-0.1,0.3-0.2,0.7-0.2,1l0.3,0.7l0.6,0.4c0,0,0.2-2-0.1-2s-0.2-1.2-0.2-1.2s0.4-1.6-0.2-1.6s-0.2-0.8-0.6-1.1
	s-0.2-1.4-0.3-1.7s-0.2-0.7-0.6-1c0,0-0.1,0-0.1,0l0,0C160,58.4,160.4,59.3,160.2,59.4z"/>
<polygon class="st0" points="163.1,70.2 162.6,70.2 162.6,70.2 162.6,70.8 163.1,70.9 "/>
<path class="st0" d="M148.2,55.2c0,0-0.2,1.5-0.6,1.9h-1.1c0.1,0.2,0.3,0.5,0.5,0.7c0.2,0.2,0.8,0.7,0.2,1.1s0.1,0.2,0.1,0.2
	s-0.1,1.7-0.8,1.5s-1,0.9-1,1.2s2.9,0.4,2.4,0c-0.2-0.2,0.3-0.8,0.3-0.8s1.9,0.1,2.3,0.1s0.7-0.1,0.5-0.5s-1-0.3-1-0.3
	c-0.6,0.1-1.3,0-1.8-0.2c-0.9-0.5,0.1-0.6,0.3-0.6s0.9-0.6,0.6-1s0-1.2,0-0.8s0.9,0.5,1.1,0.2c0.1-0.4,0-0.9-0.4-1.2
	c-0.4-0.2,0.7-0.4,0.4-0.8c-0.2-0.3-0.4-0.6-0.5-0.9l0,0C149.3,55.3,148.8,55.4,148.2,55.2z"/>
<path class="st0" d="M161.5,114.6l-0.2,0.5c0.1,0,0.1,0,0.2,0.1l0.1,0.4c0,0-0.1,0.1-0.1,0.1l0.3,0.3c0.2-0.2,0.3-0.5,0.3-0.8
	C162,114.9,161.8,114.7,161.5,114.6z"/>
<path class="st0" d="M161.4,115"/>
<polygon class="st0" points="162.1,113.6 162.9,113.6 162.9,112.9 162.1,112.8 "/>
<path class="st0" d="M162.1,112.9"/>
<path class="st0" d="M157.1,89.1c0.3,0.1,0.6,0.2,0.3-0.7c-0.1-0.3-0.4-0.5-0.7-0.4l0,0c-0.7,0-1.5,0.4-1.3,0.8
	C156,89.3,156.8,89,157.1,89.1z"/>
<rect x="147.1" y="104.5" class="st0" width="0.6" height="1.6"/>
<path class="st0" d="M104.9,26.5c0,0,1.2,0.1,1.3,0.3s0.9,0.3,1,0.1s0.4-0.7-0.3-0.7s-0.6-0.4-0.8-0.7c-0.1-0.1-0.6-0.2-1-0.1
	s-0.8,0.1-0.8,0.2C104.3,26,104.9,26.5,104.9,26.5z"/>
<polygon class="st0" points="78.5,10.8 77.6,9.1 77.6,9.1 "/>
<polygon class="st0" points="85,30.6 84.7,31 85.2,31.4 85.5,31.1 "/>
<path class="st0" d="M86.1,25.4l-0.9-1.6l0,0L86.1,25.4z"/>
<polygon class="st0" points="139.8,60 139.8,60.5 140.6,60.4 140.6,59.9 "/>
<polygon class="st0" points="157.2,78.2 158,78.3 158.1,77.8 157.3,77.7 "/>
<rect x="151.3" y="57.4" class="st0" width="0.5" height="0.6"/>
<polygon class="st0" points="152.8,57.9 152.4,57.7 152.4,57.7 152.1,58.2 152.6,58.4 "/>
<polygon class="st0" points="149.9,54 149.8,53.5 149,53.6 149,54.1 "/>
<polygon class="st0" points="127.3,7.1 127.4,7 128.3,6.4 128,6 128,6 127.3,6.5 126.7,6.2 126.5,6.6 127.1,7 "/>
<rect x="150.3" y="54.1" class="st0" width="0.5" height="0.4"/>
<path class="st0" d="M140.6,59.9"/>
<polygon class="st0" points="142.2,61.2 141.9,61.8 142.4,62 142.6,61.4 "/>
<path class="st0" d="M143.6,62.5c-0.3,0-0.6,0-0.9,0.1c-0.4,0.1-0.3,0.4,0,0.8l1-0.1c0,0,0.7-0.3,0.6-0.6S143.9,62.5,143.6,62.5z"/>
<polygon class="st0" points="155.2,78.4 155,78.5 154.4,78.9 153.9,78.5 153.6,79 154.2,79.3 154.4,79.4 154.5,79.3 155,79.1 
	155,79.3 155.5,79.1 155.3,78.7 "/>
<path class="st0" d="M136.1,61.3"/>
<path class="st0" d="M108.9,92.2L108.9,92.2l-0.7,0.1l0.1,1.2l0.5,0.4l0.9,0.2c0,0,1.2-0.3,1.3-1.3l-1.9-0.1L108.9,92.2z"/>
<path class="st0" d="M115.8,86.5c0.3,0.1,0.1-1.2,0.1-1.2l0,0l-1.5,1.1c0.7,0.1,0.8,0.8,0.9,1.2C115.5,88.2,115.5,86.4,115.8,86.5z"
	/>
<polygon class="st0" points="120.1,108.9 120.6,108 120.2,107.8 120.2,107.8 119.6,108.2 119.8,108.5 "/>
<polygon class="st0" points="129.9,105.3 129.6,104.9 129,105.3 129.3,105.7 "/>
<path class="st0" d="M120.4,86.5c0.4,0.2,1.1-0.3,0.6-0.6c-1.2-0.8-1.1-1.9-1.5-2.6c-0.1-0.2-0.2-0.3-0.3-0.3l0,0
	c-0.1,0-0.3,0.1-0.4,0.4v1.1C119.3,85.1,119.8,85.8,120.4,86.5z"/>
<path class="st0" d="M127,99.4"/>
<polygon class="st0" points="107.3,77.3 106.5,77.2 106.5,77.2 106.3,77.6 105.9,77.6 105.8,78.2 106.3,78.2 106.4,78.8 106,79.1 
	105.9,79.5 105.3,79.7 103.8,81.1 103.7,81.7 103.3,82.3 102.8,83.5 101.1,83.6 100.8,85.1 101,86.3 102.5,86.9 102.7,86.1 
	103.1,85.8 103.2,85 103.6,84.4 104,83.8 104.2,83.2 105,82.7 106,82.5 106.4,82 106.5,81.1 106.6,80.3 107,79.8 107.9,79.4 
	107.9,77.8 107.4,77.8 "/>
<path class="st0" d="M113.4,65.4"/>
<path class="st0" d="M79.9,89L79.9,89c-0.2,0-0.3,0.1-0.3,0.3c0,0,0,0,0,0l0,0c0,0.2,0.1,0.3,0.3,0.3c0,0,0,0,0,0
	c0.2,0,0.3-0.2,0.3-0.3C80.2,89.2,80,89.1,79.9,89z"/>
<path class="st0" d="M83.5,86"/>
<path class="st0" d="M111.4,98.8c0,0-0.3,0.5-0.8,0c0-0.1-0.1-0.1-0.2-0.1l0,0c-0.4,0-0.7,1.3-0.9,1.5c0,0,0.2,0.7,0.5,0.6
	s0.6-0.2,0.9-0.3s0.4-0.5,0.5-1.1C111.6,99.3,111.6,99,111.4,98.8z"/>
<path class="st0" d="M121.2,129.1"/>
<path class="st0" d="M149.9,120.3c-0.3-0.2,0.4,0.4,0.6,0.7c0.1,0.2,0.4,0.3,0.6,0.2c0.1,0,0.2-0.1,0.2-0.2c0.1-0.3,0.1-0.7,0.1-1
	l-0.5-0.5C150.7,120.2,150.2,120.5,149.9,120.3z"/>
<path class="st0" d="M157.5,121.5l-0.4-0.4l-0.1-2c0.3-1.1-1.6-2.6-1.7-2.3s-1.2,0.1-1.2,0.4s-0.6,2-0.3,2.5c0,0,0,0,0,0.1l-0.7,2
	c-0.2,0.4-0.4,0.8-0.3,1.1l0,0l0.7,0.4l0.1,1.4c0.5,0.5,1.8,0.5,2.7,0.4l1.3-1.4C157.5,122.6,157.5,121.5,157.5,121.5z"/>
<path class="st0" d="M112,98.1L112,98.1c0,0-0.3,0.8,0,0.9s0.2,0.2,0.4,0.4l-0.2,0.4c-0.3-0.4-0.5,0.3-0.3,0.5s-0.4,0-0.4,0.3
	s-0.2,0.4,0,0.5s0,0.2-0.3,0.4s1,0.2,1,0.2s-0.2-0.5,0-0.5h0.1l0.2-3.2L112,98.1z"/>
<path class="st0" d="M133,58.4c0-0.3-0.8-0.7-0.7-0.2s-0.6,0.7-0.7,0.6s-0.6,0.5-0.6,0.5c0,0.2-0.2,0.6,0.3,0.7s1.4-0.3,1.5,0.1
	c0,0.1,0,0.3,0.1,0.4l1.4-1.4C133.9,58.9,133,58.7,133,58.4z"/>
<path class="st0" d="M138.5,60.7c0-0.3-1-1.6-1.5-1.6l1.5,1.8C138.5,60.8,138.5,60.7,138.5,60.7z"/>
<path class="st0" d="M136.1,60.9L136.1,60.9l0.9,0.2l-1.4-1.6l-1.5,1.5h0.4C135.1,61.1,136.1,60.9,136.1,60.9z"/>
<path class="st0" d="M138.2,63"/>
<path class="st0" d="M105.1,113.7l-0.7,0.2l-0.5,0.7l-1,0.3l-0.1,1.7l-0.5,0.3v0.7l-0.6,0.1v0.4l-0.8,0.1l0.5,1.2l0.6,0.3
	c1.1,0.1,0.6,1.6,0.6,1.6l0.6,0.1l0.3,0.9l0.6,1.3c0.2,1,1,0.7,1.3,0.7s0.6,1,0.6,1l3.2,0.1c0,0-0.1,0.3,0.4,0.5
	c0.9,0.1,1.8,0.2,2.7,0.2l2-0.5c0.4-0.2,0.9-0.3,1.4-0.3c0.5,0,0.9,0.2,1.4,0.4c0.6,0.4,1.4,0.5,2.1,0.2l0.9,1.1l1,1.8l0,0l0.1,0.4
	l1.4,0.4l1,0.2l0.3,1.4l0.7,0.1l0.2,0.9c0.9,0.6-0.2,2-0.2,2v1.8l0.6,0.3l-0.1,0.7l1.1,1.1l1.2,0.1l2,2.1l2.1,1.5l1.4,0.4l0.4,1.3
	l0.6-0.1l0.5-0.4l2-0.1l1-0.9l1-0.1l7.6-6.5l0.5-2.7v-0.9c1.5-1.1,1.6-3,0.2-3.1c-1-0.1-0.6-1.2,0.4-1.4l0.6-0.2v-0.7l1.8-1.7v-1.3
	l-4-3.4c-0.8-0.3-0.9-1.3-0.6-2.3l2.2-4.8c-0.1-1.2-0.3-2.3-0.5-3.5l-0.6-0.3l0.1-2h-0.9l-1.5,1.9l-0.1,0.5l-1,1.7
	c-1.5,0.5-3.1,0.6-4.6,0.2c-0.6-0.4-1.3-0.7-2-1c0,0-1.3-1.1-1.5-0.7s-1.4-0.4-1.4-0.1s-1.1-0.6-1.1-0.6l-1.6-0.6l1.2-0.2l-0.2-0.8
	c0,0,0.1,0,0.1-0.1l0,0l1.9,1c0.2,0.3,1.3,0.2,1.3,0.2l0.3,0.4c0.4,0,0.8,0.1,1.1,0.4c0.4,0.5,2.5,0.1,2.5,0.1l0.6,0.5l0.9,0.3h1.5
	l1.2-1.6l0.4-0.4l-0.1-1l0.6-0.5v-0.8l0.5-0.1l0.1-1.8l0.4-0.1v-3.9l-1.2-1c-0.1,0.4-1.4,0.4-1.4,0.4s-0.3,0.6-0.6,0.6
	s0.3,0.7,0.2,1.2s-0.8,0.5-0.8,0.5l-1.2,0.3l-0.3,0.4h-1.3l-0.1-0.7c0.2-0.1,0.2-0.3,0.4-0.5l1-0.3l0.8-0.4l0.4-0.8
	c0.1-0.8,1.1-0.7,1.1-0.7s1.8-1.5,2-2.3s0.7-2.8,1.8-2.8h2.1c0.8-0.3,0.6-1.4,0.6-1.4l1.1-0.1l0.1,0.6c0,0,1.5,0.1,1.6-0.1
	s0.5-0.8,0.9-0.6s1.7-0.6,1.7-0.6c0.1-0.6,2.1-0.3,2.1-0.3l0.2-0.7c0,0-1.4-1.9-1.6-1.9s-1.6-1.2-1.7-0.7c-1.3-0.3-1.2-2.1-1.2-2.1
	l-0.5-1.2c0-0.7-1.2-2-1.5-1.9c-0.4-0.2-0.6-0.7-0.6-1.1l0,0l1.6-2c0.1-0.1,0.1-0.2,0.1-0.2l0.4-1.2l1.4-0.4l0.1-1.1H152
	c0,0,0.8-1.5,1.2-1.5c1.1,0,2.2,0,3.3-0.1c0.4-0.5,0.6-1.1,0.7-1.7c0-0.2,0.6-0.3,0.9-0.4c0.4-0.3,0.8-0.6,1-1.1
	c0.1-0.3-0.4-2.4-0.7-2c-0.3,0.2-0.7,0.4-1.1,0.5l-0.2,0.9l-0.4,0.3c0.1,0.3,0.1,0.6,0,0.8c-0.1,0.6-0.8,0.9-0.8,0.9l-0.3,0.4
	c-0.7,0.1-1.5,0.1-2.2,0c-0.3-0.1-0.5-0.5-0.3-0.9c0.1-0.2,0.3-0.4,0.6-0.4c0.5,0.1-0.1-1.4-0.1-1.4l0.6-0.1c0,0,0.1-1.5,0.3-1.5
	s-0.1-0.5-0.4-0.7s-0.7-1.1-1.1-1c-0.5,0.1-1.1,0.1-1.6,0l-0.2,0.5l-0.9,0.1c0,0,0.1,0.6-0.1,0.8c-0.5,0.6-2.3,1.8-1.6-0.2l0.2-0.5
	v-0.7l-1.5-0.1c0,0-0.7-0.2-0.7-0.6c0-0.2,0-0.5-0.1-0.7l-1.7-1.9l-2-0.2l-0.1-0.4l-1.2-0.1c-0.2-0.1-0.3-0.2-0.5-0.2l-1.9,0.6
	c-0.1,0.2-0.1,0.5,0,0.8c0.2,1.2,0.6,1.7-0.2,1.7c-0.4,0.1-0.9-0.2-1-0.6c0,0-0.6-0.2-0.6,0.1s-0.2,1,0,1.3s-0.3,0.8-0.6,0.6
	s-0.9-1-0.7-1.2s-1.1-1.8,0.2-2s-0.1-1,0.4-1.2l0.6-0.3h0.6l0.4-0.3l0,0l-1-0.1l-0.6-0.1l-1.2-0.1c-0.7,0.4-1.2,1-1.5,1.8
	c-0.5,1.1-1.8,0-1.8-0.8l-2.8,0.1c-0.3,0-0.6,0-0.8,0c-0.2,0.7-1.4-0.1-1.1-0.6c0.2-0.2,0.3-0.5,0.3-0.8l-0.4-0.1l-0.5,0.9
	c-1.1,0-1.5,0.6-1.2,1.1c0.2,0.4-0.3-0.1-0.5,0.5s0.1,0.6,0.6,0.8c0.5,0.2-0.2,0.2,0.1,0.6s0.7,0.2,0.8,0.2l-0.6,0.6
	c-0.4,0.1-0.8,0.1-1.2,0c0,0.2-0.1,0.3-0.2,0.3c-1.3-1.1-2.7-1.9-4.3-2.6c0.2-0.2,0.7-0.2,0.9-0.7c0.2-0.8,0.4-1.6,0.5-2.4
	c0,0-1.3-0.1-1.4,0.3s-0.9,0.6-0.9,0.6s-0.6,0.2-0.4,0.6s-0.5,0.5-0.5,0.5c0,0.1,0,0.3,0,0.4l-5.1,1.2l0,0l0.1,2l-0.9-0.3h-0.5
	l-0.2-0.5l-0.5-0.1v1.8l0.5,0.4l0.4,0.4l0.8,0.1l0.1,1l2,0.1l0.2,0.4l1.2,0.1l2.3,2.4l-0.1,0.7l-0.4,0.1c0.1,0.6-1.1,0.2-1.1,0.2V75
	l0.6,0.1l0.6,0.3l0.8-1.4c0.9-0.6,1.3,0.2,1.4,0.7s-0.4,0.4-0.4,0.4v1.1l0.5,0.1c0.4,0.4,0.3,1.1-0.1,1.4c-0.1,0.1-0.1,0.1-0.2,0.1
	l-0.2,0.8c-0.2,0.7-1.1,0.6-1.1,0.6l-0.3,0.5l-1,0.2l1.9,0.2c0.2-0.7,0.7-0.8,0.9-0.5c0.2,0.3,0.2,0.6,0.2,0.9l0.5,0.1l-0.1,0.9
	l0.5,0.1v2.6l0.6,0.6c1-0.4,1,0.2,0.5,0.6s-0.1,1.8-0.1,1.8l-0.4,0.4v0.7l-0.5,0.3v0.9c-0.6-0.3-1.4-0.3-2,0
	c-0.7-0.5-2.3-0.3-2.3,0.1c0.5,0.6-0.6,0.8-0.6,0.8l-0.6,0.6c0.4,0.8-0.4,0.9-0.4,0.9V94l-1,0.9v1.5l2.5,1.5l0.1,0.1h0.7l0-0.4
	l-0.4-1.9v-1.8l0.8-0.9c0,0,0.1,0,0.1,0l0,0c0.7,0,0.5,1.7,0.5,2.2l0,2l0,0c0,0.1,0,0.3,0.1,0.4l0.4,0.1l-0.7,0.6l-0.6,0.7l-0.8-0.2
	l-1-0.1l-0.3-0.6l-0.6-0.1l-0.1,1.2l-0.4,0.5l-1,1c1,0,0.3,0.5-0.1,0.8l-2,0.6c-0.1,0-0.2,0-0.3-0.1v0.6l-0.6,0.1l0.6,0.6l0.4,0v1.5
	c0,1.1-2.7,0.3-2.9,0.1l-0.1,1.5l-0.5,0.1l0.1,1l-0.1,1.4l0.9-0.1v0.6l2.2,0.1l0.4-0.4l2-2l0.8-0.9l1.9-0.4c0.1-0.8,1,0.1,1,0.1
	c0.8-0.1,1,0.5,1,0.5l1.1,0.1c0.9,0.2,0.4,0.3,0.4,0.7s0.5,0.3,0.5,0.3l0.1-1.1l0.5,0.1l-0.5-0.6l-0.9-0.4l-1-0.4
	c-0.6-0.9,0.1-0.7,0.8-0.6h1.1c0.5,0.6,0.9,1.3,1.2,2c0,0.4,0.6,0.5,0.6,0.5l0.7-0.1l0.2,0.6h0.7l0.2,0.5h1.5l0.1-0.8l-1.4-0.2
	l-0.1-0.8l-1-0.2c-0.3-1.4,0.2-1.8,0.6-1.2l0.5,0.1l-0.1-1.2l0.6-0.1l-0.1-1.7l-0.5-0.1v-0.8l2,0.1c-0.1-0.5-0.1-1.1,0.1-1.6h0.6
	l0.1,0.4l2.5,0.2h0.1c1,0.6,0.5,1.3,0.1,1.5c-0.3,0.1-0.6,0.1-0.9,0.1l-0.2,0.3l-2.1,0.1l-0.2,0.8c-0.6-0.1-1.2,0.4-1.3,1
	c0,0.2,0,0.4,0.1,0.5c0.1,0.3,0.1,0.7,0,1.1l0.9,0.4l1.1-0.3c0.2-0.8,0.9-1,1.6-1.5s1.7,0.9,1.4,1.6c0,0.1,0,0.1-0.1,0.2
	c-1.2,0.9-2.5,1.6-3.9,2.3l0,0c-2.2,1.1-4.4,1.8-6.8,2.3c0,0-0.1,0-0.1,0l-0.9-0.2l-0.1-1.2c-0.1-0.8-1.7-0.8-1.6-0.2
	s-2.9,0.2-2.9,0.2l-1.9,1.4l-1.5,0.1l-0.6,0.3l-0.2-0.5h-0.6l-0.4,0.5l-3.2,1.4c-0.2,0.2-0.3,0.3-0.2,0.4
	C105.9,113.2,105.1,113.7,105.1,113.7z M130.7,96.7c0-0.5,0.1-1.2,0.1-1.4s0.5-0.5,0.9-0.5l0,0c0.2,0,0.3,0.1,0.3,0.4
	c-0.2,0.3-0.2,0.7,0,1.1c1.1-1,2,0.1,1.8,0.3s0.6,0.5,1,0.2s0.9,0.7,0.7,1.2s-1.6,0.4-1.7-0.1s-0.3-0.3-0.5-0.1
	c-0.3,0.2-0.7,0.3-1.1,0.2l-0.3-0.3c0-0.1,0.1-0.2,0-0.3s-0.2-0.1-0.4-0.1L130.7,96.7z"/>
<path class="st0" d="M172.6,51.6c0,0-1.1-0.8-1.1-1.2s-1.1-1.2-1.1-1.6s-1.1-1-1-1.3s-0.6-1.2-0.6-1.2l-1.2-1.2l-0.1-0.7l-1-0.1
	l-2-2.4l0.1-0.7l-0.6-0.1v-0.9l-0.6-0.3l-0.9-0.1l-1.8-2l-0.2-0.9h-0.9l0.2-1.4l-0.6-2.1c-0.3,0.1-0.6,0.1-0.8,0
	c-0.6-0.2,0.2-0.8,0.2-0.8v-0.6l-0.5-0.5c0,0-1.4,0.1-1.5-0.1s-0.3-1.3-0.3-1.3l-0.1-1.4l-0.6-0.2l-0.1-0.5l-0.9,0.1v-1l-0.5-0.1
	l-0.5-0.2l-0.1-1l-1.8-0.1l-0.6-0.8l-0.6-1l-2-0.1l-0.5-0.5l-0.8-0.1l-0.6-0.2l-0.2,0.4l-1.6,0.1l-0.1,0.5c-0.9,0.2-1.9,0.3-2.8,0.2
	l-1.6,1.4c-0.1,0.3-0.2,0.5-0.4,0.5c-0.4,0-0.2,1.1-0.2,1.1c0.5,0,0.9,0,1.4,0.1c0.3,0.1,0.3,0.9,0.3,0.9c1.2-0.1,1.7,1.6,1.5,2
	s0.5,0.4,0.5,0.4c0,0.6,0,1.1-0.1,1.6c-0.2,0.4,1.1,0.6,1.4,1.1c0.2,0.8,0.1,1.6-0.3,2.3c-0.2,0.1,0.6,0.3,0.6,0.7s0.2,0,0.3,0.7
	s0.2,2,0.2,2l1.1,0.1c0.1-1.1,2.2-1.1,2.6-1c1.2,0.7,2.1,1.8,2.4,3.1c0,0.5-0.9,0.6-0.9,0.6V42l0.6,2.1c1.1,0.7,2,2.2,1.8,2.5
	s1,0.2,1,0.2c0.2-1.5,1.6-1,1.6-0.5s0.3,1.5,0.3,1.5l0.4,0.7l0.6,0.6l0.9-0.1l0.2,0.5l1.1,0.1c0.4,0.4,0.7,0.8,1,1.2
	c0.1,0.2,1.3,0.1,1.6,0.2s0.8,0.4,0.9,0.7c0.1,0.4,0.3,0.7,0.6,1.1c0,0,1,0.2,1.1,0.6c0.1,0.4,0.3,0.7,0.5,1.1l0.8,0.7l0.1,0.7
	l0.9,0.1l0.2,1l1.5-0.1l0.8-0.6c0.2-0.1,0.5-0.3,0.7-0.4l1.3-1.8c0.2-0.4,0.4-0.9,0.9-0.7C173.2,53.7,172.6,51.6,172.6,51.6z"/>
<path class="st0" d="M161.6,72.2c-0.2-0.2,0.2-1.4,0.2-1.4c0.2-0.4,0.2-0.9,0-1.3c-0.2-0.6-0.1-1.2,0.3-1.7l-0.6-0.3l-0.6-0.1
	l-0.5,0.1c-0.2-0.5-0.3-1-0.5-1.6l0,0l0.4,0.1v-0.5l-0.6-0.1c-0.1-0.3-0.2-0.7-0.3-1l-0.1-1.7l-0.6-0.4l0.2-0.6l-0.6-0.2l0.3-1.1
	l-0.6-1.2h-0.8c-0.4-0.8-0.8-1.6-1.2-2.3c0.1-0.1,0.2-0.1,0.3-0.1c0.4-0.1,0.6-0.1,0.6-0.1l0,0l-0.1-0.9l-0.7-0.5l-0.2-1
	c0,0-0.9,0.1-0.8,0.6c0,0.1-0.1,0.2-0.1,0.2c-0.6-0.9-1.2-1.8-1.8-2.7c0,0,0-0.1,0-0.1c0.3-0.6,0.2-0.9-0.4-1.1s-0.6-0.1-0.7-0.8
	c-0.1-0.4-0.4-0.7-0.8-0.8l-0.2-1l-0.6,0.4c-0.3-0.4-0.6-0.7-1-1.1l0.3-0.9c-0.3,0-0.5-0.2-0.6-0.4l-0.9-1.8
	c-0.3-0.2-0.6-0.3-0.7-0.1c-0.4,0.2-0.2-1.7-0.2-1.7s0.7-0.5,1.1-0.2s-2.7-4.1-3.4-3.7s-2.1-0.4-2-1.2s-2.9-3.2-2.9-3.2
	s-1-0.6-1.1-0.1s-0.5,0.8,0,1.1s0.4-0.4,1,0.1s1.6,1.3,1.2,1.8c-0.2,0.3-0.5,0.5-0.9,0.6l0.6,0.7h0.9l0.1,1.4c0,0,1,0.5,1.2,1.1
	c0.1,0.3,0.2,0.6,0.2,0.9l-0.8,1.9c0.1,0.4,0.4,0.7,0.7,0.8h0.4l0.8,0.6v0.7c0.7,0,1.3,0.4,1.6,1.1l1.4,1.4l0,0
	c0.3,0.3,0.3,0.4,0.8,0.8c0.1,0.1,0.3,0.2,0.4,0.2c0.2,0.3,0.5,0.6,0.8,0.9l-0.2,0.2c0,0.9,0.4,0.7,0.9,0.6c0.2,0.1,0.2,0.3,0.4,0.5
	c0,0.5,0,1.3,0.9,1.2l0,0c1,1.4,2,2.9,2.9,4.3v0.1l0,0c0.1,0.2,0.3,0.5,0.4,0.7c-0.1,0.1-0.2,0.2-0.3,0.3l-1.3,0.1v1.3l-0.6,0.2
	l0.1,0.8l0.9-0.1c0,0,0,1,0.2,0.6s2.3,0.1,2.1,1.1c0,0.4,2,1.5,1.8,2.8c0.1,0,0.3,0.1,0.4,0.1c0.4,1.1,0.7,2.3,1,3.4l-0.1,0.3
	c0.1,0.1,0.2,0.2,0.3,0.2c0.2,1,0.5,2,0.6,3.1c0,0.9-0.2,1.8-0.7,2c-1,0.6,0.1,0.2,0.1,0.2l-0.2,1.8c0.2,0.8,0.6,0.4,0.9,0
	c0.1-0.2,0.2-0.3,0.4-0.5l1.6-3.1C161.7,72.7,161.8,72.4,161.6,72.2z"/>
<path class="st0" d="M137.5,37.9c-0.2-0.6,0.6-0.8,1.1-0.1l0.8-0.1l0.1-0.7l-1.1-0.9h-0.9c0,0-0.1,0.6-0.6,0.4
	c-0.2-0.1-0.5-0.2-0.7-0.2c-0.4-0.1-0.3,0.8-0.2,1.3l1.7,0.9C137.5,38.2,137.5,38.1,137.5,37.9z"/>
<path class="st0" d="M114.9,24.4c0.1-0.4,0.1-0.4,0.6-0.5s-0.1-1.1-0.6-1c-0.3,0.1-0.7,0-0.9-0.3v2.2
	C114.6,24.9,114.8,24.7,114.9,24.4z"/>
<path class="st0" d="M103.5,92.3c0.2-0.4,0.6-0.6,1.1-0.7l0.2-0.6l2.2,0.1c0-0.3,0.3-0.6,0.7-0.6c0.2,0,0.4,0.2,0.5,0.4
	c0,0.4,0.8,0.1,0.8,0.1l0.6-0.9h0.9l0.1-1l0.4-0.2v-1.5c0.7-0.2,1.2-0.9,1.1-1.7l0.3-0.4l-0.1-0.6c-0.6-0.2-0.4-0.8,0.1-0.7
	s-0.6-0.7-0.6-0.7c-0.5,0.4-0.9-0.5-0.9-0.5h-1.3v-1.2l-0.1-1.1l-1.2-0.6l-0.9,0.8l-0.1,1.2v0.7l-0.8,0.1l-0.1,2.2l-0.6,0.2l0.1,0.8
	l-0.9,0.2l-0.9,0.2l-0.1,1.1l-0.6,0.4l-0.3,1l-0.4,2.3l1,0.9C103.5,92.5,103.4,92.4,103.5,92.3z"/>
<path class="st0" d="M110.8,69.6c-1,0,0-0.7,0-0.7l0.1-1.2h-0.9l-0.1-1.8l-2.4-1.3l-0.1-0.9l0.4-0.2l-0.6-0.2l-0.5,0.6l-0.1,0.7
	l-0.8,0.1V65h-0.5v0.5c-1.2,0.6-2.3,1.4-3.3,2.3h-2.7l-0.8,0c-0.3,0.7-1.1-0.1-1.1-0.1c-0.1-0.5-1.3,0-1.3,0c0,0.9-1.5-0.4-1.5-0.4
	l-2.8-2c-1.6-1.5-4,0.4-4.1,0.8c0,0.6-0.5,0.6-1,0.5l-2-0.4c-0.3,0-0.7,0-0.8,0.3c-0.2,0.6-1.3,0.5-1.3,0.5l-0.1,0.3l-0.8,0.1
	L81.3,68l-1,0.1l2.4-0.1c0.6-0.1-0.2,1.4-0.6,1.3L81,69.5l-0.4,0.4h-1.1L79,70.6l-1.5-0.1c0,0-0.9,0.7-0.8,1s-0.1,1-0.4,1
	s-0.7,0.7-0.6,1s-0.5,1.1-0.5,1.1l-0.1,0.8l-0.5,0.1v2.2l-1,0.6v1l-0.4,0.5l-0.9,1.9l0,0.4l-1.2,1.3l0.1,1.3l-0.7,0.2l-0.1,0.6
	L70,87.4l0.8,0.1c0.4-0.1,0.3,1.1,0,1.2s-1.2,0.5-0.7,0.8s-1.3,0.2-1.3-0.2s-1-0.9-1.2-0.7s-0.3-0.1-0.5-0.4l-2-0.7
	c-0.6,0.1-1.2,0.2-1.8,0.4l-0.4,1.3c-0.9,0.1-1.5,1.7-1.5,1.7c-0.7,0.2-1.3,1.2-1.1,1.4S60,92.6,60,92.6v1.8L59.6,95l0.1,2
	c0.5,0,0.4,0.9,0.4,0.9C59.3,98,59.5,99,59.5,99l-1.7,0.6l-0.3,0.5l-2.1-0.1l-0.6,0.6l0,0l-2.2-0.6h-2.4L50,99.6l-0.8-0.1l-0.1-0.9
	l-1.2,0.1l-0.2,0.5l-1.3,0.1c0.1,0.8-1.3,2-1.5,1.7s-1.1-1.2-0.6-1.4c0.5-0.1,1-0.3,1.5-0.3v-0.6l-3-0.1L42.4,99l-1.2,0.1v1.2
	l-0.6,0.1c-0.4,0.2,0.1,1.2,0.1,1.2c0.6,0.6-0.1,1.5-0.1,1.5c-0.5,0.5,0.4,1.4,0.4,1.4c0.6,0.1-0.4,0.6-0.4,0.6
	c0,0.4,0.3,0.8,0.6,1.1c-0.3,0.4-0.2,0.9,0.2,1.1c0,0,0.1,0.1,0.1,0.1l0.1,1.4l0.6,0.3v0.9l0.3,0.6h1.3l-0.1-2
	c-1.1-1.3,1-1.7,1.1-1.2s1,0.7,1,0.7c0.1,1.2,1.5,2,1.9,0.7s0.7-0.5,1,0.1c0.5,0.7,1.1,1.4,1.8,2h1.2l0.1,1.2c1.4-0.1,1.8,0.1,2.3,2
	c0.3,1.1,1.1,2,2.1,2.4l1.1-0.1c0-1,1.1,0.1,1.1,0.7s2.2,2.4,2.2,2.4L63,120l0.4,0.3l3.5,1.2h0.3c0.1-0.3,0.4-0.6,0.7-0.6
	c0.7,0.1,1.4,0.5,1.8,1.2c0.1,0.3,0.3,0.5,0.5,0.6l2,0.7c0.1,0.2,0.2,0.4,0.2,0.7c0.1,1.2,0.7,1,0.7,1l4.6-0.1l1.6-1.4l4.1-0.1
	c2.1-0.1,0.8-3,0.4-3c-0.2-0.3-0.3-0.6-0.2-1l-4.1-6.3c-0.7-0.7-1.3-1.4-1.9-2.1c0.1-0.3,0.3-0.7,0.4-1c1.1-0.7-0.2-1.7-0.2-1.7
	c0-0.8-0.2-1.5-0.6-2.1c-0.9-0.7-1.3-1.8-1.1-2.9V102c-1.2-1.2,0.5-1.3,0.5-1.3c0.3-0.6,0.2-1.3-0.4-1.7l-0.1-1.1L75,97.7l-0.1-3.8
	l-2.9-4.2c-0.6-0.1-0.1-1.2-0.1-1.2c0.7-0.4-0.1-1.4-0.1-1.4l-0.1-1.8l1.7-0.1l0.4-0.6h0.9l-0.1-2.1c0.1-0.3,0.3-0.6,0.6-0.6h0.4
	c0.1,0,0.3,0.1,0.4,0.1l1.1,0.1l0.1-0.2l0.7-2l0,0l-0.9-0.1c-1-0.6-0.5-2.7-0.5-2.7c0.4-0.7,1.2-1.3,2-1.4c0.5,0,0.9,0.1,1.3,0.4
	l1.1-0.1c0.3,0.1,0.5,0.4,0.6,0.6c-0.1,0.8-0.2,1.5-0.2,2.3c-0.1,0.1-0.1,0.2-0.2,0.3c-0.1,0.2-0.2,0.4-0.2,0.6l0.1,2l0.3,2.1
	l-1.1,0.9c-0.9,0.5-0.9,1.7,0.1,1.9c0.6,0.1,0.4,1.7-0.6,0.6c-1.3,0,0.4,1.1,0.3,1c1.3,0.6,1-0.7,1-0.7l0.7-0.6l1.8-1l0,0
	c0.6,0.3,1.2,0.9,1.5,1.6c0,0.2,3.2,0.1,3.2,0.1c0.6,0.5,1,1.2,1.2,2c0.9-1.2,2.8-0.1,1.4,0.6C92,91,92,91.7,92,91.7
	c1.1-0.3,1.1,0.5,1.1,0.7c0.2-0.4,0.3-0.8,0.4-1.2c-1.2-0.9,1.6-1.2,0.8,0.4l-0.5,0.7l0.8,0.6l0.1,1.9c1.8-0.1,1.3-2.4,1.3-2.4
	l0.8-0.1c0-0.7,0.6-0.4,0.6-0.4c-0.4-1.9,0.4-2.8,0.9-3.1l1.4-1.5c0.1-0.4,0.1-0.7,0.1-1.1c-0.7-0.3-0.3-1.5,0.5-0.5s-0.5-2-0.5-2
	l-0.6-0.6l-0.8-0.1l-1.9,0.2L96,83.5l-0.1-0.3l-0.3,1h-1.5l-0.1-1l0.9-0.2l0.3-0.5l0.1-0.7h0.9l2-2c0.1-0.1,0.3-0.2,0.5-0.1l0.5,0.4
	l0.7,0.6l0.1,0.5l-0.5,0.2l-0.1,0.7l0.2,0.9h0.6c0.2-0.7,0.9-1.2,1.6-1c0.3,0.1,0.6,0.3,0.8,0.6l0.5-1.2c-1.1-0.6,0-1.5,0.3-1.1
	s1.1-1.1,1.1-1.1s0.6,0.7,0-0.2c-0.3-0.5-0.2-1.1,0.3-1.4c0,0,0.1-0.1,0.1-0.1c-0.1-1,1.1-0.8,1.1-0.8l0.1-1.3l-1.1-0.1
	c-0.2,1.2-1.2,0.1-0.7-0.1c0.4-0.2,0.7-0.4,1-0.7v-0.8l0.5-0.1l0.1-0.8h1.2l1.1-0.5l0.2-0.4l1.1-0.1l1.6-1.5L110.8,69.6z"/>
<path class="st0" d="M147.3,116"/>
<polygon class="st0" points="81.7,87.1 83.5,86 83.5,86 "/>
<polygon class="st0" points="66.4,140.4 66.4,140.4 67,141.4 67.1,142.2 68,142.4 68.3,142.9 68.8,142.6 68.4,141.5 67.4,140.6 "/>
<polygon class="st0" points="107.8,137.5 108.3,137.1 108.5,136.9 108.2,136.7 107.4,136.3 107.2,136.7 107.7,136.9 107.5,137.1 "/>
<polygon class="st0" points="101.6,130.4 101.1,130.8 100.9,131 101.2,131.2 101.7,131.6 102,131.2 101.7,131 101.9,130.8 "/>
<polygon class="st0" points="44.5,113.2 44.5,114.3 45,114.3 44.9,113.1 44.3,112.8 44.3,112.4 43.9,112.4 43.9,113.2 "/>
<polygon class="st0" points="49.5,119.3 50.4,120.2 50.7,119.6 50.1,118.3 49.6,117.9 49.2,116.8 48,116.2 48,116.2 48.5,117.7 
	48.8,118.4 "/>
<path class="st0" d="M121.2,129.1"/>
<path class="st0" d="M182.9,106.1h-0.5l0,0c0,0.4,0,0.9,0.4,0.9l0.1-0.5l0,0C182.9,106.4,182.9,106.2,182.9,106.1z"/>
<path class="st0" d="M185.4,104.1c0.1,0.1,0.2,0.1,0.3,0l-0.1-0.5c0.1,0,0.1,0,0.1,0.1v-0.1c0-0.2-0.1-0.4-0.2-0.5l0,0l-0.4,0.2
	c0,0.1,0,0.2,0.1,0.3C185.2,103.8,185.3,104,185.4,104.1z"/>
<path class="st0" d="M185.4,105c-0.1-0.3-0.2-0.7-0.3-1l0,0l-0.5,0.1c0.1,0.5,0.3,1,0.3,1L185.4,105z"/>
<path class="st0" d="M180.5,96c-0.1,0-0.2,0-0.3,0c-0.4,0-0.7,0.1-1,0.3l0.3,0.4c0.2-0.2,0.5-0.2,0.8-0.2l0,0l0.5-0.1
	C180.7,96.2,180.6,96,180.5,96z"/>
<path class="st0" d="M182.1,107L182.1,107c-0.2,0.1-0.4,0.2-0.5,0.3c-0.5,0.3-0.3,1.5,0,1.2s0.7,0,0.7-0.9
	C182.4,107.1,182.3,107,182.1,107z"/>
<polygon class="st0" points="118.1,62.8 118.1,62.3 118.1,62.3 117.6,62.3 117.6,62.9 "/>
<polygon class="st0" points="122.7,61.5 122.5,61 122.3,61.1 122.4,61.6 "/>
<rect x="124" y="60.4" transform="matrix(0.9989 -4.640909e-02 4.640909e-02 0.9989 -2.6795 5.8628)" class="st0" width="1.8" height="0.5"/>
<polygon class="st0" points="123.3,61 123.1,60.2 123.1,60.2 122.6,60.3 122.8,61 "/>
<polygon class="st0" points="115.3,60.7 114.8,60.6 114.8,60.6 114.7,61.1 115.2,61.1 "/>
<rect x="116.9" y="61.5" class="st0" width="0.6" height="0.5"/>
<polygon class="st0" points="116.4,61 115.8,60.8 115.8,60.8 115.7,61.3 116.3,61.4 "/>
<path class="st0" d="M129.3,9.7c-0.4,0.1-0.8,0.1-1.2,0.1h-1.5c0-0.3-0.4-0.4-0.7-0.3l0,0c-0.3,0-0.7,0.2-0.7,0.3
	c-0.1,0.3-0.6,0.4-0.6,0.4l-1.9,0.1c-0.1,0.5-1.1,0.8-1.2,0.5l0,0c-0.2-0.7-1.2,0.9-0.1,1.2c0.7,0.2,1.4,0.2,2.1,0l0.2-0.5l4,0.1
	c0.2-0.2,0.4-0.5,0.5-0.8c0,0,1-0.3,1.4-0.1S129.7,9.5,129.3,9.7z"/>
<path class="st0" d="M121.7,14.8l-1.1-1.1v-0.9l-0.3-0.3l-0.3-1.2l-1.1-0.3l-1.1,0.4l-1.1,0.7l-1.2,0.1l-0.6,0.7l2.6,0.2l0.5,0.8
	l1.9,0.1l1.2,1.2C122.1,15.9,122.4,15.4,121.7,14.8L121.7,14.8z"/>
<polygon class="st0" points="131.7,8 131.1,8.5 130.7,8.1 130.3,8.5 130.9,9 131,9.2 131.2,9.1 132,8.4 "/>
<path class="st0" d="M127.7,61.4c0,0.2,0.6,0.5,0.9,0.5c0.4-0.2,0.8-0.4,1.2-0.6c0,0,0.4-1.2,0.1-1.1s-1,0.6-1.1,0.1
	c0-0.2-0.3-0.3-0.5-0.3c-0.2,0-0.3,0-0.5,0l-1.3,0.2l-0.1,0.6l0.9,0.1C127.3,60.9,127.7,61.2,127.7,61.4z"/>
<path class="st0" d="M128.3,60"/>
<polygon class="st0" points="109.8,61.1 109.2,61 109.2,61.5 109.7,61.6 "/>
<path class="st0" d="M80,88.3c0,0,0,0-0.1,0C79.9,88.3,79.9,88.3,80,88.3z"/>
<path class="st0" d="M79.7,48.4"/>
<path class="st0" d="M69,37.8"/>
<path class="st0" d="M118.9,11.1"/>
<rect x="110.6" y="60.5" class="st0" width="0.6" height="0.5"/>
<path class="st0" d="M99.2,47.2c0.5,0-0.4-0.6-0.4-0.6s-1,0.1-0.9-0.3l0.1,0.9L99.2,47.2z"/>
<path class="st0" d="M97.9,46.3"/>
<polygon class="st0" points="109.3,61.8 108.7,61.6 108.6,62.1 109.2,62.3 "/>
<path class="st0" d="M77.7,90c0.1,0.9,0.7-0.6,0.7-0.6v-5.6l-1.5-0.1l0,0l0.1,0.6h0.4c0.6,1.2,0.1,4,0.1,4s-1,0.1-1.1-0.4
	s-0.6,1.1-0.2,1.3S77.6,89.1,77.7,90z"/>
<polygon class="st0" points="78.7,93 78.9,92.3 78.3,92.1 78.4,90.8 78.9,90.8 78.9,90.2 78.9,90.2 77.7,91 76.9,90.5 76.9,92.4 
	78.2,94.2 "/>
<path class="st0" d="M79.8,98.4L79.8,98.4c-0.2,0-0.3,0.2-0.3,0.3l0,0c0,0.2,0.2,0.3,0.3,0.3c0.2,0,0.3-0.2,0.3-0.3
	C80.1,98.6,80,98.4,79.8,98.4z"/>
<path class="st0" d="M79.6,97.1c0-0.2-0.2-0.3-0.4-0.3c-0.1,0-0.3,0.1-0.3,0.3c0,0.2,0.2,0.3,0.4,0.3C79.5,97.3,79.6,97.2,79.6,97.1
	z"/>
<polygon class="st0" points="79,95.2 78.5,95.3 78.4,95.9 79,96 "/>
<polygon class="st0" points="77.6,100 78.3,99.9 78.3,99.4 77.6,99.5 "/>
<polygon class="st0" points="100.2,46.3 99.7,46 99.4,46.3 99.9,46.7 "/>
<polygon class="st0" points="108.5,62.8 108.5,62.3 108,62.4 108.1,62.8 "/>
<path class="st0" d="M151,375.3c1.3-11.7,2.6-23.4,3.9-35.1c0.2-2.1,0.2-2.1,2.4-2.1c1.9,0,3.8,0,5.8,0c0.8,0,0.9,0.2,0.8,0.9
	c-1.1,7-2.2,14-3.3,21.1c-1.4,9.1-2.8,18.2-4.2,27.2c-0.5,3.2-0.4,3.2-3.7,3.2c-1.8,0-3.6,0-5.4,0c-0.7,0-1-0.3-1-1
	c-1.1-10.6-2.3-21.1-3.4-31.7c-0.1-0.7-0.2-1.4-0.5-2l-0.7,5.8c-0.8,6.8-1.6,13.5-2.3,20.2c-0.3,2.5-0.6,5-0.8,7.5
	c-0.1,0.9-0.3,1.2-1.3,1.2c-2.5-0.1-5-0.1-7.4,0c-0.8,0-1-0.2-1.1-1c-2-13.3-3.9-26.5-5.9-39.8c-0.5-3.6-1-7.2-1.6-10.8
	c-0.1-0.7,0-0.8,0.7-0.8c2.4,0,4.9,0,7.3,0c0.7,0,0.9,0.4,0.9,0.9c0.4,3.8,0.8,7.6,1.3,11.4c0.7,6.1,1.4,12.2,2,18.3
	c0.3,2.6,0.6,5.2,1,7.8c0.3-3.1,0.6-6.3,1-9.4l2.1-19.9c0.3-2.7,0.6-5.4,0.8-8.1c0.1-0.9,0.3-1.1,1.2-1.1c2.2,0.1,4.3,0,6.5,0
	c0.7,0,0.9,0.2,1,0.9c0.9,9.1,1.8,18.2,2.7,27.3c0.3,3.1,0.6,6.2,1,9.3c0.1,0.1,0.1,0.2,0.2,0.3C150.9,375.7,151,375.5,151,375.3z"
	/>
<path class="st0" d="M190.8,389.7c-0.5-3.1-1-6.2-1.5-9.3c-1.3-8.4-2.7-16.9-4-25.3c-0.8-5.3-1.7-10.7-2.5-16c-0.1-0.7-0.4-1-1.1-1
	c-1.7,0.1-3.4,0-5,0s-3.3,0-4.9,0c-0.8,0-1.1,0.3-1.2,1c-0.5,3.5-1.1,7-1.6,10.4c-2.1,13.3-4.2,26.7-6.3,40c-0.1,0.8,0,1,0.8,1
	c2.2,0,4.3-0.1,6.5,0c1.3,0.1,1.6-0.5,1.7-1.6c0.2-2.5,0.5-5,0.8-7.5c0.1-0.8,0.3-1.2,1.2-1.1c1.8,0.1,3.7,0.1,5.5,0
	c1.1-0.1,1.5,0.3,1.6,1.4c0.2,2.5,0.5,5.1,0.8,7.6c0.1,0.5,0,1.2,0.9,1.2c2.5-0.1,5,0,7.6,0C190.7,390.5,191,390.4,190.8,389.7z
	 M178,372.8c-1.2,0-2.4,0-3.6,0c-0.7,0-0.8-0.3-0.7-0.9c0.8-7.4,1.7-14.8,2.5-22.2c0.2-1.5,0.3-3,0.5-4.5h0.3c0.3,3.1,0.7,6.3,1,9.5
	c0.5,5.5,1.1,10.9,1.6,16.3C179.8,372.8,179.8,372.8,178,372.8z"/>
<path class="st0" d="M87.6,350.4c0,1.2,0,2.4,0,3.6c0,0.7-0.2,1-1,0.9c-2.2,0-4.3,0-6.5,0c-0.8,0-0.9-0.2-0.9-1c0.1-2,0.1-4-0.2-6
	c-0.5-2.6-2.2-3.8-4.8-3.2c-1.6,0.4-2.7,1.8-2.7,3.4c-0.2,2.9,1,5.8,3.2,7.7c3.1,3.1,5.8,6.5,8.7,9.8c4.2,4.9,5.4,10.8,4,17.1
	c-1,4.7-4.6,7.7-9.4,8.4c-2.7,0.4-5.4,0.2-7.9-0.7c-4.4-1.4-7.3-5.5-7.4-10.1c-0.1-2,0-4.1,0-6.1c0-0.6,0.1-0.9,0.8-0.9
	c2.3,0,4.7,0,7,0c0.7,0,0.9,0.2,0.9,0.9c-0.1,2,0,4,0.1,6c0.4,2.3,1.6,3.6,3.7,3.6s3.5-1.4,3.8-3.6c0.4-3.5-0.7-7-3.2-9.6
	c-2.7-3-5.4-6-8.1-9c-4.4-4.9-5.5-10.6-4-16.8c1.1-4.6,4.9-7.3,10-7.7c2-0.1,3.9,0,5.8,0.4c4.4,0.9,7.6,4.6,7.8,9.1
	C87.6,347.9,87.6,349.1,87.6,350.4L87.6,350.4z"/>
<path class="st0" d="M92.9,364.2c0-4.7,0-9.4,0-14.2c-0.1-2.3,0.3-4.6,1.2-6.7c1.9-4,5.3-5.8,9.5-6.2c1.9-0.2,3.9,0,5.7,0.5
	c4.6,1.4,7.8,5.7,7.8,10.5c0.1,2.7,0,5.4,0.1,8c0,0.7-0.2,0.9-0.9,0.9c-2.3,0-4.6,0-7,0c-0.8,0-0.9-0.3-0.9-1c0-2.5,0-5,0-7.4
	s-0.9-3.7-2.9-4c-1.7-0.4-3.3,0.6-3.7,2.3c0,0.1,0,0.2-0.1,0.3c-0.1,0.6-0.2,1.1-0.1,1.7c0,10.1,0,20.3,0,30.5c0,0.6,0,1.1,0.1,1.7
	c0.2,1.7,1.7,2.9,3.4,2.8c0,0,0.1,0,0.1,0c1.7,0.1,3.1-1.2,3.1-2.9c0,0,0-0.1,0-0.1c0.2-3.3,0.2-6.6,0.1-9.9c0-1.1,0.3-1.4,1.4-1.4
	c2.2,0.1,4.3,0,6.5,0c0.4,0,0.9-0.1,0.9,0.6c-0.1,3.8,0.4,7.7-0.2,11.5c-0.9,5.8-4.9,9.3-10.8,9.7c-1.8,0.1-3.7-0.1-5.5-0.6
	c-4.6-1.3-7.8-5.5-7.8-10.3c-0.1-5.4,0-10.9,0-16.3L92.9,364.2z"/>
<path class="st0" d="M36.9,364.3c0-8.3,0-16.6,0-25c0-1.1,0.3-1.3,1.4-1.3c6.2,0,12.4,0,18.6,0c0.9,0,1.2,0.2,1.2,1.2
	c-0.1,2-0.1,3.9,0,5.9c0,0.8-0.2,1-1,1c-3.4,0-6.8,0-10.2,0c-0.8,0-1.1,0.2-1.1,1.1c0,3.8,0,7.7,0,11.5c0,0.8,0.2,1,1,1
	c2.8,0,5.7,0,8.5,0c0.8,0,1,0.2,1,1c-0.1,2-0.1,4,0,6c0,0.8-0.3,1-1,1c-2.8,0-5.6,0-8.4,0c-0.9,0-1.1,0.3-1.1,1.2
	c0,4.2,0,8.3,0,12.5c0,0.9,0.2,1.2,1.2,1.2c3.5-0.1,7,0,10.4,0c1,0,1.2,0.3,1.2,1.2c-0.1,2,0,3.9,0,5.9c0,0.7-0.1,1-0.9,1
	c-6.6,0-13.2,0-19.8,0c-0.9,0-0.9-0.4-0.9-1.1C36.9,381.1,36.9,372.7,36.9,364.3z"/>
</svg>
